<svg xmlns="http://www.w3.org/2000/svg" style="display: none;">
  <!--
    SVG Sprite for JNR Project
    Icons from Lucide (lucide.dev) - licensed under ISC
  -->
  <symbol id="icon-search" viewBox="0 0 24 24" fill="none" stroke="currentColor" stroke-width="2" stroke-linecap="round" stroke-linejoin="round">
    <circle cx="11" cy="11" r="8"></circle>
    <line x1="21" y1="21" x2="16.65" y2="16.65"></line>
  </symbol>
  <symbol id="icon-star" viewBox="0 0 24 24" fill="none" stroke="currentColor" stroke-width="2" stroke-linecap="round" stroke-linejoin="round">
    <polygon points="12 2 15.09 8.26 22 9.27 17 14.14 18.18 21.02 12 17.77 5.82 21.02 7 14.14 2 9.27 8.91 8.26 12 2"></polygon>
  </symbol>
  <symbol id="icon-library" viewBox="0 0 24 24" fill="none" stroke="currentColor" stroke-width="2" stroke-linecap="round" stroke-linejoin="round">
    <path d="m16 6 4 14"></path>
    <path d="M12 6v14"></path>
    <path d="M8 8v12"></path>
    <path d="M4 4v16"></path>
  </symbol>
  <symbol id="icon-cpu" viewBox="0 0 24 24" fill="none" stroke="currentColor" stroke-width="2" stroke-linecap="round" stroke-linejoin="round">
    <rect x="4" y="4" width="16" height="16" rx="2" ry="2"></rect>
    <rect x="9" y="9" width="6" height="6"></rect>
    <line x1="9" y1="1" x2="9" y2="4"></line>
    <line x1="15" y1="1" x2="15" y2="4"></line>
    <line x1="9" y1="20" x2="9" y2="23"></line>
    <line x1="15" y1="20" x2="15" y2="23"></line>
    <line x1="20" y1="9" x2="23" y2="9"></line>
    <line x1="20" y1="14" x2="23" y2="14"></line>
    <line x1="1" y1="9" x2="4" y2="9"></line>
    <line x1="1" y1="14" x2="4" y2="14"></line>
  </symbol>
  <symbol id="icon-arrow-right" viewBox="0 0 24 24" fill="none" stroke="currentColor" stroke-width="2" stroke-linecap="round" stroke-linejoin="round">
    <line x1="5" y1="12" x2="19" y2="12"></line>
    <polyline points="12 5 19 12 12 19"></polyline>
  </symbol>
  
  <!-- Tech Stack Icons -->
  <symbol id="icon-windows" viewBox="0 0 24 24" fill="none" stroke="currentColor" stroke-width="2" stroke-linecap="round" stroke-linejoin="round"><path d="M3 5a2 2 0 0 1 2-2h14a2 2 0 0 1 2 2v14a2 2 0 0 1-2 2H5a2 2 0 0 1-2-2Z"/><path d="m3 12 18 0"/><path d="M12 3 12 21"/></symbol>
  <symbol id="icon-code" viewBox="0 0 24 24" fill="none" stroke="currentColor" stroke-width="2" stroke-linecap="round" stroke-linejoin="round"><polyline points="16 18 22 12 16 6"/><polyline points="8 6 2 12 8 18"/></symbol>
  <symbol id="icon-database" viewBox="0 0 24 24" fill="none" stroke="currentColor" stroke-width="2" stroke-linecap="round" stroke-linejoin="round"><ellipse cx="12" cy="5" rx="9" ry="3"/><path d="M21 12c0 1.66-4 3-9 3s-9-1.34-9-3"/><path d="M3 5v14c0 1.66 4 3 9 3s9-1.34 9-3V5"/></symbol>
  <symbol id="icon-disc" viewBox="0 0 24 24" fill="none" stroke="currentColor" stroke-width="2" stroke-linecap="round" stroke-linejoin="round"><circle cx="12" cy="12" r="10"/><circle cx="12" cy="12" r="3"/></symbol>
  <symbol id="icon-radio" viewBox="0 0 24 24" fill="none" stroke="currentColor" stroke-width="2" stroke-linecap="round" stroke-linejoin="round"><path d="M4.9 19.1C1 15.2 1 8.8 4.9 4.9"/><path d="M7.8 16.2c-2.3-2.3-2.3-6.1 0-8.5"/><circle cx="12" cy="12" r="2"/><path d="M16.2 7.8c2.3 2.3 2.3 6.1 0 8.5"/><path d="M19.1 4.9C23 8.8 23 15.2 19.1 19.1"/></symbol>
  <symbol id="icon-newspaper" viewBox="0 0 24 24" fill="none" stroke="currentColor" stroke-width="2" stroke-linecap="round" stroke-linejoin="round"><path d="M4 22h16a2 2 0 0 0 2-2V4a2 2 0 0 0-2-2H8a2 2 0 0 0-2 2v16a2 2 0 0 1-2 2Zm0 0a2 2 0 0 1-2-2V4a2 2 0 0 1 2-2h4"/><path d="M16 2v20"/><path d="M8 7h4"/><path d="M8 12h4"/><path d="M8 17h4"/></symbol>
</svg>